<svg width="28" height="28" viewBox="0 0 28 28" fill="none" xmlns="http://www.w3.org/2000/svg">
<path fill-rule="evenodd" clip-rule="evenodd" d="M16.9443 4.44002C17.5488 4.62669 18.1265 4.86669 18.6777 5.16002L21.1217 3.69335C21.3765 3.5405 21.6751 3.47717 21.9701 3.5134C22.265 3.54964 22.5394 3.68336 22.7497 3.89335L24.107 5.25069C24.317 5.46095 24.4507 5.73535 24.4869 6.03029C24.5232 6.32524 24.4598 6.62384 24.307 6.87869L22.8403 9.32269C23.1337 9.8738 23.3737 10.4516 23.5603 11.056L26.3243 11.748C26.6127 11.8202 26.8686 11.9868 27.0515 12.2211C27.2343 12.4554 27.3336 12.7441 27.3337 13.0414V14.9587C27.3336 15.2559 27.2343 15.5446 27.0515 15.779C26.8686 16.0133 26.6127 16.1798 26.3243 16.252L23.5603 16.944C23.3737 17.5485 23.1337 18.1262 22.8403 18.6774L24.307 21.1214C24.4598 21.3762 24.5232 21.6748 24.4869 21.9697C24.4507 22.2647 24.317 22.5391 24.107 22.7494L22.7497 24.1067C22.5394 24.3167 22.265 24.4504 21.9701 24.4866C21.6751 24.5229 21.3765 24.4595 21.1217 24.3067L18.6777 22.84C18.1265 23.1334 17.5488 23.3734 16.9443 23.56L16.2523 26.324C16.1801 26.6123 16.0136 26.8683 15.7793 27.0511C15.5449 27.234 15.2562 27.3333 14.959 27.3334H13.0417C12.7444 27.3333 12.4557 27.234 12.2214 27.0511C11.9871 26.8683 11.8206 26.6123 11.7483 26.324L11.0563 23.56C10.4573 23.3749 9.87692 23.1338 9.32299 22.84L6.87899 24.3067C6.62415 24.4595 6.32555 24.5229 6.0306 24.4866C5.73565 24.4504 5.46126 24.3167 5.25099 24.1067L3.89366 22.7494C3.68367 22.5391 3.54994 22.2647 3.51371 21.9697C3.47747 21.6748 3.54081 21.3762 3.69366 21.1214L5.16033 18.6774C4.86651 18.1234 4.62545 17.5431 4.44033 16.944L1.67633 16.252C1.38822 16.1798 1.13246 16.0135 0.949609 15.7795C0.766761 15.5454 0.667297 15.257 0.666992 14.96V13.0427C0.667 12.7454 0.766328 12.4567 0.949199 12.2224C1.13207 11.9881 1.388 11.8216 1.67633 11.7494L4.44033 11.0574C4.62699 10.4529 4.86699 9.87513 5.16033 9.32402L3.69366 6.88002C3.54081 6.62518 3.47747 6.32658 3.51371 6.03163C3.54994 5.73668 3.68367 5.46229 3.89366 5.25202L5.25099 3.89335C5.46126 3.68336 5.73565 3.54964 6.0306 3.5134C6.32555 3.47717 6.62415 3.5405 6.87899 3.69335L9.32299 5.16002C9.8741 4.86669 10.4519 4.62669 11.0563 4.44002L11.7483 1.67602C11.8205 1.38791 11.9868 1.13215 12.2209 0.949304C12.4549 0.766456 12.7433 0.666992 13.0403 0.666687H14.9577C15.2549 0.666695 15.5436 0.766023 15.7779 0.948894C16.0123 1.13177 16.1788 1.38769 16.251 1.67602L16.9443 4.44002ZM14.0003 19.3334C15.4148 19.3334 16.7714 18.7715 17.7716 17.7713C18.7718 16.7711 19.3337 15.4145 19.3337 14C19.3337 12.5855 18.7718 11.229 17.7716 10.2288C16.7714 9.22859 15.4148 8.66669 14.0003 8.66669C12.5858 8.66669 11.2293 9.22859 10.2291 10.2288C9.22889 11.229 8.66699 12.5855 8.66699 14C8.66699 15.4145 9.22889 16.7711 10.2291 17.7713C11.2293 18.7715 12.5858 19.3334 14.0003 19.3334Z" fill="#43D2FF"/>
</svg>
