<svg width="36" height="36" viewBox="0 0 36 36" fill="none" xmlns="http://www.w3.org/2000/svg">
<path d="M19.5965 35.9613V20.0969H35.4609V35.9613H19.5965ZM13.5028 34.375L12.824 28.9525C12.2253 28.7712 11.5784 28.4875 10.8834 28.1012C10.1871 27.7137 9.59527 27.2987 9.10777 26.8562L4.10527 28.9844L0.608398 22.8906L4.93215 19.63C4.8759 19.2925 4.83027 18.9438 4.79527 18.5837C4.75777 18.2238 4.73902 17.8744 4.73902 17.5356C4.73902 17.2206 4.75777 16.8894 4.79527 16.5419C4.83027 16.1944 4.8759 15.8031 4.93215 15.3681L0.608398 12.1113L4.10527 6.08875L9.07027 8.18125C9.63027 7.715 10.2365 7.29437 10.889 6.91937C11.539 6.54437 12.1721 6.25438 12.7884 6.04938L13.5009 0.625H20.4984L21.1753 6.085C21.894 6.3375 22.529 6.62687 23.0803 6.95312C23.6315 7.27938 24.1996 7.68812 24.7846 8.17937L29.894 6.08875L33.3909 12.1094L29.1196 15.3362C29.1196 15.3837 29.1253 15.4319 29.1365 15.4806C29.149 15.5294 29.1553 15.5775 29.1553 15.625H21.2109C20.8459 14.81 20.2871 14.1375 19.5346 13.6075C18.7821 13.0775 17.9203 12.8125 16.949 12.8125C15.6415 12.8125 14.5334 13.2669 13.6246 14.1756C12.7159 15.0844 12.2615 16.1925 12.2615 17.5C12.2615 18.495 12.5215 19.375 13.0415 20.14C13.5603 20.9037 14.2546 21.4688 15.1246 21.835V34.375H13.5028ZM22.1915 33.3662H32.8659V32.0725C32.2034 31.2812 31.4065 30.6737 30.4753 30.25C29.5428 29.8275 28.5609 29.6162 27.5296 29.6162C26.4984 29.6162 25.5159 29.8275 24.5821 30.25C23.6484 30.6725 22.8515 31.2794 22.1915 32.0706V33.3662ZM27.5278 28.03C28.1903 28.03 28.7528 27.7987 29.2153 27.3363C29.6778 26.8725 29.909 26.31 29.909 25.6488C29.909 24.9875 29.6778 24.4256 29.2153 23.9631C28.7528 23.5006 28.1903 23.2694 27.5278 23.2694C26.8678 23.2694 26.3059 23.5006 25.8421 23.9631C25.3796 24.4256 25.1484 24.9881 25.1484 25.6506C25.1484 26.3106 25.3796 26.8719 25.8421 27.3344C26.3046 27.7969 26.8671 28.0281 27.5296 28.0281" fill="#044973"/>
</svg>
