<svg width="34" height="35" viewBox="0 0 34 35" fill="none" xmlns="http://www.w3.org/2000/svg">
<path d="M24.0313 30.8687C22.475 30.8687 21.2188 29.2937 21.2188 27.3437C21.2188 25.4125 22.475 23.8375 24.0313 23.8375C25.5875 23.8375 26.8438 25.4125 26.8438 27.3437C26.8438 29.2937 25.5875 30.8687 24.0313 30.8687ZM17 16.0937C14.675 16.0937 12.7813 14.5187 12.7813 12.5875C12.7813 10.6375 14.675 9.06249 17 9.06249C19.325 9.06249 21.2188 10.6375 21.2188 12.5875C21.2188 14.5187 19.325 16.0937 17 16.0937ZM9.96877 30.8687C8.41252 30.8687 7.15628 29.2937 7.15628 27.3437C7.15628 25.4125 8.41252 23.8375 9.96877 23.8375C11.525 23.8375 12.7813 25.4125 12.7813 27.3437C12.7813 29.2937 11.525 30.8687 9.96877 30.8687ZM17 10.4687C17.7688 10.4687 18.4063 11.1062 18.4063 11.875C18.4063 12.6437 17.7688 13.2812 17 13.2812C16.2313 13.2812 15.5938 12.6437 15.5938 11.875C15.5938 11.1062 16.2313 10.4687 17 10.4687ZM29.6563 17.5C29.0563 17.5 28.475 17.6312 27.95 17.875C27.05 16.7312 25.8313 15.7562 24.3688 15.0062C25.4375 13.5062 26.075 11.6875 26.075 9.71873V9.60624C28.1188 9.17499 29.6563 7.35624 29.6563 5.16249C29.6563 2.66874 27.6125 0.624985 25.1188 0.624985C23.825 0.624985 22.625 1.16874 21.8375 2.03124C20.3914 1.11218 18.7135 0.624084 17 0.624084C15.2866 0.624084 13.6086 1.11218 12.1625 2.03124C11.375 1.16874 10.175 0.624985 8.88128 0.624985C6.38752 0.624985 4.34377 2.66874 4.34377 5.16249C4.34377 7.33749 5.88127 9.15624 7.90627 9.60624V9.71873C7.90627 11.6875 8.56253 13.525 9.61253 15.0062C8.16878 15.7562 6.95002 16.7312 6.05002 17.875C5.40927 17.5863 4.70633 17.4631 4.0056 17.5165C3.30487 17.57 2.62876 17.7984 2.03919 18.1809C1.44962 18.5634 0.965444 19.0877 0.631023 19.7057C0.296602 20.3238 0.122623 21.016 0.125025 21.7187C0.125025 24.0625 2.00002 25.9375 4.34377 25.9375H4.45627C4.38127 26.3875 4.34377 26.875 4.34377 27.3437C4.34377 31.225 6.85627 34.375 9.96877 34.375C11.8625 34.375 13.5313 33.1937 14.5625 31.3937C15.35 31.5062 16.1563 31.5625 17 31.5625C17.8438 31.5625 18.65 31.5062 19.4375 31.3937C20.4688 33.1937 22.1375 34.375 24.0313 34.375C27.1438 34.375 29.6563 31.225 29.6563 27.3437C29.6563 26.875 29.6188 26.3875 29.5438 25.9375H29.6563C32 25.9375 33.875 24.0625 33.875 21.7187C33.875 19.375 32 17.5 29.6563 17.5Z" fill="#044973"/>
</svg>
