<svg width="24" height="24" viewBox="0 0 24 24" fill="none" xmlns="http://www.w3.org/2000/svg">
<path d="M20.9024 5.89729L17.2679 3.61504L11.3504 13.0395L14.9827 15.3195L20.9024 5.89729ZM10.7962 15.9375L10.7159 18.0788L12.6112 17.076L14.3737 16.146L10.8689 13.944L10.7962 15.9375ZM21.8722 2.43004L19.9724 1.23529C19.7427 1.09114 19.4651 1.04414 19.2007 1.10461C18.9363 1.16509 18.7067 1.3281 18.5624 1.55779L17.8124 2.74879L21.4447 5.03029L22.1947 3.84079C22.4947 3.36079 22.3522 2.72854 21.8722 2.42854V2.43004ZM18.8984 20.295C18.8984 20.5013 18.7297 20.67 18.5234 20.67H4.27344C4.17398 20.67 4.0786 20.6305 4.00827 20.5602C3.93795 20.4899 3.89844 20.3945 3.89844 20.295V6.04504C3.89844 5.94558 3.93795 5.8502 4.00827 5.77988C4.0786 5.70955 4.17398 5.67004 4.27344 5.67004H14.2064L15.6194 3.42004H4.27344C2.82594 3.42004 1.64844 4.59754 1.64844 6.04504V20.295C1.64844 21.7425 2.82594 22.92 4.27344 22.92H18.5234C19.9709 22.92 21.1484 21.7425 21.1484 20.295V8.32279L18.8984 11.9048V20.2973V20.295Z" fill="#044973"/>
</svg>
