<svg width="22" height="22" viewBox="0 0 22 22" fill="none" xmlns="http://www.w3.org/2000/svg">
<path d="M19.9024 4.89729L16.2679 2.61504L10.3504 12.0395L13.9827 14.3195L19.9024 4.89729ZM9.79619 14.9375L9.71594 17.0788L11.6112 16.076L13.3737 15.146L9.86894 12.944L9.79619 14.9375ZM20.8722 1.43004L18.9724 0.23529C18.7427 0.0911411 18.4651 0.0441374 18.2007 0.104614C17.9363 0.16509 17.7067 0.328095 17.5624 0.55779L16.8124 1.74879L20.4447 4.03029L21.1947 2.84079C21.4947 2.36079 21.3522 1.72854 20.8722 1.42854V1.43004ZM17.8984 19.295C17.8984 19.5013 17.7297 19.67 17.5234 19.67H3.27344C3.17398 19.67 3.0786 19.6305 3.00827 19.5602C2.93795 19.4899 2.89844 19.3945 2.89844 19.295V5.04504C2.89844 4.94558 2.93795 4.8502 3.00827 4.77988C3.0786 4.70955 3.17398 4.67004 3.27344 4.67004H13.2064L14.6194 2.42004H3.27344C1.82594 2.42004 0.648438 3.59754 0.648438 5.04504V19.295C0.648438 20.7425 1.82594 21.92 3.27344 21.92H17.5234C18.9709 21.92 20.1484 20.7425 20.1484 19.295V7.32279L17.8984 10.9048V19.2973V19.295Z" fill="#044973"/>
</svg>
