<svg width="18" height="24" viewBox="0 0 18 24" fill="none" xmlns="http://www.w3.org/2000/svg">
<g clip-path="url(#clip0_1598_538)">
<path d="M8.99998 7.5C11.0719 7.5 12.75 5.82188 12.75 3.75C12.75 1.67812 11.0719 0 8.99998 0C6.9281 0 5.24998 1.67812 5.24998 3.75C5.24998 5.82188 6.9281 7.5 8.99998 7.5ZM6.49686 19.1625L7.69685 17.6625L4.81404 15.2625L2.66248 17.9531C2.1281 18.6187 2.11404 19.5656 2.62498 20.25L4.87498 23.25C5.24529 23.7422 5.80779 24 6.37498 24C6.76404 24 7.16248 23.8781 7.49998 23.625C8.32967 23.0063 8.49373 21.8297 7.87498 21L6.49686 19.1625ZM13.1859 15.2625L10.3031 17.6625L11.5031 19.1625L10.125 21C9.50623 21.8297 9.67029 23.0063 10.5 23.625C10.8375 23.8781 11.2312 24 11.625 24C12.1969 24 12.7594 23.7422 13.125 23.25L15.375 20.25C15.8859 19.5656 15.8719 18.6187 15.3375 17.9531L13.1859 15.2625ZM17.6578 6.79688C17.0625 5.94844 15.8953 5.74687 15.0469 6.3375L13.1437 7.67344C10.6734 9.40781 7.32185 9.40781 4.85623 7.67344L2.9531 6.34219C2.10467 5.74688 0.93748 5.95312 0.342168 6.79688C-0.253145 7.64531 -0.0468949 8.8125 0.796855 9.40781L2.69998 10.7437C3.49685 11.3016 4.35935 11.7234 5.24998 12.0516V13.5H12.75V12.0563C13.6406 11.7281 14.5031 11.3063 15.3 10.7484L17.2031 9.4125C18.0515 8.8125 18.2531 7.64531 17.6578 6.79688Z" fill="#909090"/>
</g>
<defs>
<clipPath id="clip0_1598_538">
<rect width="18" height="24" fill="white"/>
</clipPath>
</defs>
</svg>
