<svg width="48" height="49" viewBox="0 0 48 49" fill="none" xmlns="http://www.w3.org/2000/svg">
<path d="M6.30857 42.9919H41.0829C45.282 42.9919 47.3914 40.9031 47.3914 36.7648V12.2342C47.3914 8.09594 45.282 6.00708 41.0829 6.00708H6.30857C2.13 6.00794 0 8.07708 0 12.2342V36.7657C0 40.9237 2.13 42.9919 6.30857 42.9919ZM15.0669 24.9928C12.3351 24.9928 10.1049 22.7634 10.1049 20.0308C10.1049 17.3188 12.3351 15.0688 15.0677 15.0688C17.7797 15.0688 20.0091 17.3188 20.0091 20.0317C20.0091 22.7634 17.7797 24.9928 15.0669 24.9928ZM6.34886 39.7579C4.42029 39.7579 3.23486 38.5922 3.23486 36.6234V35.3977L9.402 30.0148C10.2857 29.2314 11.25 28.8294 12.1543 28.8294C13.1186 28.8294 14.1429 29.2314 15.0274 30.0551L18.8846 33.5094L28.4674 24.9919C29.4711 24.1082 30.576 23.7062 31.7014 23.7062C32.8063 23.7062 33.9514 24.1279 34.9157 25.0125L44.1557 33.5702V36.6645C44.1557 38.5931 42.9514 39.7579 41.0426 39.7579H6.34886Z" fill="#8A8A8A"/>
</svg>
