<svg width="24" height="22" viewBox="0 0 24 22" fill="none" xmlns="http://www.w3.org/2000/svg">
<path d="M2.66634 2.66665H6.16634L8.49967 0.333313H15.4997L17.833 2.66665H21.333C21.9518 2.66665 22.5453 2.91248 22.9829 3.35006C23.4205 3.78765 23.6663 4.38114 23.6663 4.99998V19C23.6663 19.6188 23.4205 20.2123 22.9829 20.6499C22.5453 21.0875 21.9518 21.3333 21.333 21.3333H2.66634C2.0475 21.3333 1.45401 21.0875 1.01643 20.6499C0.57884 20.2123 0.333008 19.6188 0.333008 19V4.99998C0.333008 4.38114 0.57884 3.78765 1.01643 3.35006C1.45401 2.91248 2.0475 2.66665 2.66634 2.66665ZM11.9997 6.16665C10.4526 6.16665 8.96885 6.78123 7.87488 7.87519C6.78092 8.96915 6.16634 10.4529 6.16634 12C6.16634 13.5471 6.78092 15.0308 7.87488 16.1248C8.96885 17.2187 10.4526 17.8333 11.9997 17.8333C13.5468 17.8333 15.0305 17.2187 16.1245 16.1248C17.2184 15.0308 17.833 13.5471 17.833 12C17.833 10.4529 17.2184 8.96915 16.1245 7.87519C15.0305 6.78123 13.5468 6.16665 11.9997 6.16665ZM11.9997 8.49998C12.9279 8.49998 13.8182 8.86873 14.4745 9.52511C15.1309 10.1815 15.4997 11.0717 15.4997 12C15.4997 12.9282 15.1309 13.8185 14.4745 14.4749C13.8182 15.1312 12.9279 15.5 11.9997 15.5C11.0714 15.5 10.1812 15.1312 9.5248 14.4749C8.86842 13.8185 8.49967 12.9282 8.49967 12C8.49967 11.0717 8.86842 10.1815 9.5248 9.52511C10.1812 8.86873 11.0714 8.49998 11.9997 8.49998Z" fill="#044973"/>
</svg>
