<svg width="52" height="51" viewBox="0 0 52 51" fill="none" xmlns="http://www.w3.org/2000/svg">
<mask id="path-1-outside-1_1366_1066" maskUnits="userSpaceOnUse" x="0.5" y="0" width="51" height="51" fill="black">
<rect fill="white" x="0.5" width="51" height="51"/>
<path d="M37.2407 18.7792H37.2587H37.2407ZM37.2587 14.2702V8.63625V14.2702ZM48.5 13.782C48.5 19.7355 43.4599 24.564 37.2407 24.564C36.5087 24.564 35.7827 24.4965 35.0627 24.3615C34.5452 24.2647 34.2887 24.2175 34.1064 24.2445C33.9264 24.2715 33.6699 24.4065 33.1614 24.681C31.7048 25.4575 30.0284 25.7184 28.4048 25.4212C29.0213 24.6607 29.4398 23.7495 29.6265 22.773C29.739 22.1768 29.46 21.5962 29.0415 21.171C27.0874 19.2076 25.9876 16.5521 25.9814 13.782C25.9814 7.8285 31.0216 3 37.2407 3C43.4599 3 48.5 7.8285 48.5 13.782ZM15.8787 48H9.61454C8.88777 48 8.1565 47.8965 7.48823 47.6107C5.31468 46.677 4.2099 45.4418 3.69689 44.67C3.55766 44.4562 3.48926 44.204 3.50137 43.9492C3.51349 43.6944 3.60551 43.4498 3.76439 43.2502C6.28446 39.9022 12.1256 37.8817 15.8787 37.8817M15.8899 48H22.1518C22.8809 48 23.6099 47.8965 24.2782 47.6107C26.454 46.677 27.5565 45.4418 28.0717 44.67C28.211 44.4562 28.2794 44.204 28.2673 43.9492C28.2551 43.6944 28.1631 43.4498 28.0042 43.2502C25.4842 39.9022 19.643 37.8817 15.8899 37.8817M22.1406 26.1502C22.1382 27.806 21.4785 29.3931 20.3064 30.5626C19.1343 31.7321 17.5457 32.3884 15.8899 32.3872C15.0697 32.3884 14.2572 32.228 13.499 31.9152C12.7407 31.6024 12.0515 31.1434 11.4706 30.5642C10.8898 29.985 10.4287 29.2972 10.1137 28.5398C9.7987 27.7825 9.63597 26.9705 9.63479 26.1502C9.63567 25.3298 9.79819 24.5176 10.113 23.76C10.4279 23.0024 10.8889 22.3142 11.4698 21.7348C12.0507 21.1554 12.74 20.6962 13.4984 20.3832C14.2569 20.0703 15.0695 19.9098 15.8899 19.911C17.5461 19.9098 19.135 20.5664 20.3072 21.7364C21.4793 22.9065 22.1388 24.4941 22.1406 26.1502Z"/>
</mask>
<path d="M37.2407 15.7792C35.5839 15.7792 34.2407 17.1224 34.2407 18.7792C34.2407 20.4361 35.5839 21.7792 37.2407 21.7792V15.7792ZM37.2587 21.7792C38.9156 21.7792 40.2587 20.4361 40.2587 18.7792C40.2587 17.1224 38.9156 15.7792 37.2587 15.7792V21.7792ZM34.2587 14.2702C34.2587 15.9271 35.6019 17.2702 37.2587 17.2702C38.9156 17.2702 40.2587 15.9271 40.2587 14.2702H34.2587ZM40.2587 8.63625C40.2587 6.9794 38.9156 5.63625 37.2587 5.63625C35.6019 5.63625 34.2587 6.9794 34.2587 8.63625H40.2587ZM35.0627 24.3615L35.6155 21.4129L35.614 21.4126L35.0627 24.3615ZM34.1064 24.2445L33.6668 21.2769L33.6614 21.2777L34.1064 24.2445ZM33.1614 24.681L34.5727 27.3283C34.5773 27.3259 34.5818 27.3234 34.5864 27.3209L33.1614 24.681ZM28.4048 25.4212L26.0743 23.532C25.4073 24.3549 25.2236 25.4685 25.5911 26.462C25.9586 27.4555 26.8227 28.1816 27.8647 28.3722L28.4048 25.4212ZM29.6265 22.773L32.5731 23.3365L32.5745 23.3292L29.6265 22.773ZM29.0415 21.171L31.1797 19.0667C31.1758 19.0627 31.1718 19.0587 31.1678 19.0547L29.0415 21.171ZM25.9814 13.782H22.9814L22.9815 13.7887L25.9814 13.782ZM15.8787 51C17.5355 51 18.8787 49.6569 18.8787 48C18.8787 46.3431 17.5355 45 15.8787 45V51ZM7.48823 47.6107L6.30409 50.3672L6.30874 50.3691L7.48823 47.6107ZM3.69689 44.67L1.18305 46.3073C1.18817 46.3151 1.19333 46.323 1.19852 46.3308L3.69689 44.67ZM3.76439 43.2502L6.11157 45.1186C6.12842 45.0974 6.145 45.076 6.16127 45.0544L3.76439 43.2502ZM15.8787 40.8817C17.5355 40.8817 18.8787 39.5386 18.8787 37.8817C18.8787 36.2249 17.5355 34.8817 15.8787 34.8817V40.8817ZM15.8899 45C14.2331 45 12.8899 46.3431 12.8899 48C12.8899 49.6569 14.2331 51 15.8899 51V45ZM24.2782 47.6107L25.4576 50.3692L25.4613 50.3676L24.2782 47.6107ZM28.0717 44.67L30.5668 46.3358C30.5731 46.3263 30.5794 46.3168 30.5856 46.3073L28.0717 44.67ZM28.0042 43.2502L25.6074 45.0544C25.6236 45.076 25.6402 45.0974 25.6571 45.1186L28.0042 43.2502ZM15.8899 34.8817C14.2331 34.8817 12.8899 36.2249 12.8899 37.8817C12.8899 39.5386 14.2331 40.8817 15.8899 40.8817V34.8817ZM22.1406 26.1502L25.1406 26.1546L25.1406 26.147L22.1406 26.1502ZM15.8899 32.3872L15.8921 29.3872L15.8856 29.3873L15.8899 32.3872ZM9.63479 26.1502L6.63478 26.147L6.63479 26.1546L9.63479 26.1502ZM15.8899 19.911L15.8856 22.911L15.8921 22.911L15.8899 19.911ZM37.2407 21.7792H37.2587V15.7792H37.2407V21.7792ZM40.2587 14.2702V8.63625H34.2587V14.2702H40.2587ZM45.5 13.782C45.5 17.9579 41.9264 21.564 37.2407 21.564V27.564C44.9933 27.564 51.5 21.5131 51.5 13.782H45.5ZM37.2407 21.564C36.6943 21.564 36.1534 21.5137 35.6155 21.4129L34.5098 27.3101C35.412 27.4793 36.3231 27.564 37.2407 27.564V21.564ZM35.614 21.4126C35.3837 21.3695 35.1048 21.3167 34.8614 21.2837C34.6302 21.2524 34.1837 21.2003 33.6668 21.2769L34.546 27.2121C34.3657 27.2388 34.2251 27.2386 34.1486 27.2357C34.1097 27.2343 34.0816 27.2319 34.0677 27.2306C34.0537 27.2292 34.0489 27.2285 34.0562 27.2295C34.0633 27.2304 34.0781 27.2325 34.1029 27.2366C34.1277 27.2405 34.1588 27.2458 34.1985 27.2528C34.2809 27.2674 34.3788 27.2856 34.5114 27.3104L35.614 21.4126ZM33.6614 21.2777C33.1105 21.3603 32.6682 21.5658 32.4685 21.6608C32.2351 21.7718 31.9713 21.9142 31.7363 22.0411L34.5864 27.3209C34.714 27.2521 34.8118 27.1995 34.8935 27.1566C34.9333 27.1357 34.9655 27.1191 34.9918 27.1058C35.0181 27.0924 35.0354 27.084 35.0457 27.0791C35.056 27.0742 35.0551 27.0748 35.0452 27.0791C35.0354 27.0833 35.0112 27.0934 34.9753 27.1064C34.9395 27.1194 34.8856 27.1375 34.8168 27.1561C34.7476 27.1748 34.6581 27.1953 34.5514 27.2113L33.6614 21.2777ZM31.7501 22.0337C30.8911 22.4916 29.9024 22.6455 28.9448 22.4703L27.8647 28.3722C30.1544 28.7913 32.5186 28.4234 34.5727 27.3283L31.7501 22.0337ZM30.7352 27.3105C31.6717 26.1552 32.296 24.7856 32.5731 23.3365L26.6799 22.2095C26.5836 22.7134 26.3708 23.1663 26.0743 23.532L30.7352 27.3105ZM32.5745 23.3292C32.9321 21.4341 32.0099 19.9102 31.1797 19.0667L26.9033 23.2753C26.8778 23.2493 26.8065 23.1706 26.7438 23.0121C26.6759 22.8406 26.6142 22.5577 26.6786 22.2168L32.5745 23.3292ZM31.1678 19.0547C29.7716 17.6519 28.9858 15.7545 28.9814 13.7753L22.9815 13.7887C22.9894 17.3496 24.4031 20.7634 26.9152 23.2873L31.1678 19.0547ZM28.9814 13.782C28.9814 9.60613 32.555 6 37.2407 6V0C29.4881 0 22.9814 6.05087 22.9814 13.782H28.9814ZM37.2407 6C41.9264 6 45.5 9.60613 45.5 13.782H51.5C51.5 6.05087 44.9933 0 37.2407 0V6ZM15.8787 45H9.61454V51H15.8787V45ZM9.61454 45C9.1558 45 8.85477 44.9323 8.66773 44.8523L6.30874 50.3691C7.45824 50.8607 8.61974 51 9.61454 51V45ZM8.67238 44.8543C7.07626 44.1686 6.41231 43.3357 6.19526 43.0092L1.19852 46.3308C2.0075 47.5478 3.5531 49.1853 6.30409 50.3672L8.67238 44.8543ZM6.21074 43.0328C6.41529 43.3468 6.51579 43.7173 6.49799 44.0917L0.504756 43.8067C0.462725 44.6908 0.700034 45.5656 1.18305 46.3073L6.21074 43.0328ZM6.49799 44.0917C6.48019 44.4661 6.34499 44.8254 6.11157 45.1186L1.41722 41.3819C0.866032 42.0743 0.546788 42.9227 0.504756 43.8067L6.49799 44.0917ZM6.16127 45.0544C6.97251 43.9766 8.51842 42.9006 10.5008 42.0848C12.4555 41.2804 14.4651 40.8817 15.8787 40.8817V34.8817C13.5392 34.8817 10.7517 35.4933 8.21749 36.5362C5.71103 37.5677 3.07634 39.1759 1.36751 41.4461L6.16127 45.0544ZM15.8899 51H22.1518V45H15.8899V51ZM22.1518 51C23.1495 51 24.3086 50.8605 25.4576 50.3691L23.0987 44.8523C22.9112 44.9325 22.6122 45 22.1518 45V51ZM25.4613 50.3676C28.2174 49.1848 29.7584 47.5465 30.5668 46.3358L25.5767 43.0042C25.3545 43.337 24.6905 44.1692 23.095 44.8539L25.4613 50.3676ZM30.5856 46.3073C31.0686 45.5656 31.3059 44.6908 31.2639 43.8067L25.2707 44.0917C25.2528 43.7173 25.3533 43.3468 25.5579 43.0328L30.5856 46.3073ZM31.2639 43.8067C31.2218 42.9227 30.9026 42.0743 30.3514 41.3819L25.6571 45.1186C25.4237 44.8254 25.2885 44.4661 25.2707 44.0917L31.2639 43.8067ZM30.4011 41.4461C28.6923 39.1759 26.0576 37.5677 23.5511 36.5362C21.0169 35.4933 18.2295 34.8817 15.8899 34.8817V40.8817C17.3035 40.8817 19.3132 41.2804 21.2678 42.0848C23.2502 42.9006 24.7961 43.9766 25.6074 45.0544L30.4011 41.4461ZM19.1406 26.1459C19.1394 27.0064 18.7965 27.8312 18.1874 28.439L22.4254 32.6863C24.1604 30.955 25.1371 28.6056 25.1406 26.1546L19.1406 26.1459ZM18.1874 28.439C17.5782 29.0468 16.7527 29.3879 15.8921 29.3872L15.8878 35.3872C18.3388 35.389 20.6903 34.4175 22.4254 32.6863L18.1874 28.439ZM15.8856 29.3873C15.4593 29.3879 15.0371 29.3045 14.643 29.1419L12.3549 34.6885C13.4774 35.1516 14.6801 35.389 15.8943 35.3872L15.8856 29.3873ZM14.643 29.1419C14.2489 28.9794 13.8907 28.7408 13.5888 28.4398L9.35237 32.6886C10.2122 33.5459 11.2325 34.2255 12.3549 34.6885L14.643 29.1419ZM13.5888 28.4398C13.287 28.1388 13.0474 27.7813 12.8837 27.3877L7.34372 29.6919C7.81 30.813 8.49255 31.8313 9.35237 32.6886L13.5888 28.4398ZM12.8837 27.3877C12.72 26.9942 12.6354 26.5722 12.6348 26.1459L6.63479 26.1546C6.63654 27.3688 6.87743 28.5708 7.34372 29.6919L12.8837 27.3877ZM12.6348 26.1535C12.6352 25.7271 12.7197 25.305 12.8833 24.9113L7.34276 22.6087C6.87667 23.7302 6.6361 24.9325 6.63479 26.147L12.6348 26.1535ZM12.8833 24.9113C13.047 24.5176 13.2866 24.16 13.5884 23.8589L9.35119 19.6108C8.49132 20.4685 7.80885 21.4872 7.34276 22.6087L12.8833 24.9113ZM13.5884 23.8589C13.8903 23.5578 14.2486 23.3191 14.6427 23.1564L12.3542 17.61C11.2315 18.0733 10.2111 18.7531 9.35119 19.6108L13.5884 23.8589ZM14.6427 23.1564C15.0369 22.9938 15.4592 22.9104 15.8856 22.911L15.8943 16.911C14.6798 16.9093 13.4768 17.1468 12.3542 17.61L14.6427 23.1564ZM15.8921 22.911C16.7529 22.9104 17.5786 23.2516 18.1878 23.8597L22.4265 19.6132C20.6914 17.8812 18.3394 16.9092 15.8878 16.911L15.8921 22.911ZM18.1878 23.8597C18.797 24.4677 19.1397 25.2928 19.1406 26.1535L25.1406 26.147C25.1379 23.6954 24.1617 21.3452 22.4265 19.6132L18.1878 23.8597Z" fill="#044973" mask="url(#path-1-outside-1_1366_1066)"/>
</svg>
